<svg xmlns="http://www.w3.org/2000/svg" fill="none" viewBox="0 0 24 24"><path fill="#6200EE" fill-rule="evenodd" d="M7 2a1 1 0 0 1 1 1v1h8V3a1 1 0 1 1 2 0v1a3 3 0 0 1 3 3v6a1 1 0 1 1-2 0v-3H5v9a1 1 0 0 0 1 1h12a1 1 0 0 0 1-1v-2a1 1 0 1 1 2 0v2a3 3 0 0 1-3 3H6a3 3 0 0 1-3-3V7a3 3 0 0 1 3-3V3a1 1 0 0 1 1-1zm10 4H6a1 1 0 0 0-1 1v1h14V7a1 1 0 0 0-1-1h-1zm-8 7a1 1 0 1 1-2 0 1 1 0 0 1 2 0zm3 1a1 1 0 1 0 0-2 1 1 0 0 0 0 2zm5-1a1 1 0 1 1-2 0 1 1 0 0 1 2 0zm-1 5a1 1 0 1 0 0-2 1 1 0 0 0 0 2zm-3-1a1 1 0 1 1-2 0 1 1 0 0 1 2 0zm-5 1a1 1 0 1 0 0-2 1 1 0 0 0 0 2z" clip-rule="evenodd"/></svg>